
    <svg xmlns="http://www.w3.org/2000/svg" viewBox="5 -2 27 36" width="26" height="36">
        <path fill="#d32323" d="M26,7.64A11.25,11.25,0,0,0,10,23.56L18,31.5l8.27-8.27A11.24,11.24,0,0,0,26,7.64Z"/>
        <path fill="#8D0005" d="M18,32.21,9.69,23.91A11.75,11.75,0,1,1,26.31,7.29h0a11.71,11.71,0,0,1,.31,16.28ZM18,4.85a10.75,10.75,0,0,0-7.6,18.36L18,30.79l7.92-7.92A10.71,10.71,0,0,0,25.61,8h0A10.68,10.68,0,0,0,18,4.85Z"/>
        <text x="18" y="22" font-family="Helvetica,Arial,sans-serif" font-size="16" fill="#ffffff" text-anchor="middle">1</text>
    </svg>
